Coordinates
version=1
nRows=38
nColumns=12
inDegrees=yes

Units are S.I. units (second, meters, Newtons, ...)
Angles are in degrees

endheader
time	SC_y	SC_z	SC_x	AC_y	AC_z	AC_x	GH_y	GH_z	GH_yy	EL_x	PS_y
       0.0              -50.46          6.592          80.43          64.31         -4.262          3.751         -152.5          13.42         -27.18          11.49          87.67
   0.03564              -50.45          6.593          80.42          64.31         -4.264          3.749         -152.5          13.42         -27.16          11.51          87.67
   0.07128              -50.45          6.594          80.42          64.31         -4.267          3.747         -152.5          13.42         -27.13          11.52          87.67
    0.1069              -50.45          6.595          80.41          64.31         -4.269          3.744         -152.5          13.43         -27.11          11.54          87.67
    0.1426              -50.44          6.596           80.4          64.31         -4.271          3.741         -152.5          13.43         -27.08          11.56          87.67
    0.1782              -50.44          6.597           80.4          64.31         -4.274          3.738         -152.5          13.43         -27.05          11.57          87.67
    0.2139              -50.44          6.598          80.39          64.31         -4.276          3.735         -152.5          13.44         -27.02          11.59          87.67
    0.2495              -50.43            6.6          80.38          64.31         -4.279          3.732         -152.4          13.44         -26.98          11.62          87.67
    0.2851              -50.43          6.601          80.37          64.31         -4.282          3.728         -152.4          13.45         -26.95          11.64          87.67
    0.3208              -50.42          6.603          80.36          64.31         -4.286          3.724         -152.4          13.46         -26.91          11.66          87.67
    0.3564              -50.42          6.604          80.35          64.32         -4.289           3.72         -152.4          13.46         -26.87          11.69          87.67
    0.3921              -50.41          6.606          80.34          64.32         -4.293          3.716         -152.4          13.47         -26.82          11.72          87.67
    0.4277              -50.41          6.608          80.32          64.32         -4.297          3.711         -152.3          13.48         -26.77          11.75          87.67
    0.4634               -50.4           6.61          80.31          64.32         -4.302          3.706         -152.3          13.48         -26.72          11.78          87.67
     0.499              -50.39          6.612           80.3          64.32         -4.307            3.7         -152.3          13.49         -26.66          11.81          87.67
    0.5346              -50.39          6.615          80.28          64.32         -4.312          3.694         -152.2           13.5          -26.6          11.85          87.67
    0.5703              -50.38          6.618          80.26          64.32         -4.318          3.688         -152.2          13.51         -26.54          11.89          87.67
    0.6059              -50.37           6.62          80.24          64.32         -4.324           3.68         -152.2          13.52         -26.46          11.94          87.67
    0.6416              -50.36          6.624          80.22          64.32         -4.331          3.673         -152.1          13.53         -26.38          11.99          87.67
    0.6772              -50.35          6.627           80.2          64.33         -4.338          3.664         -152.1          13.54          -26.3          12.04          87.67
    0.7128              -50.34          6.631          80.18          64.33         -4.347          3.655         -152.0          13.56          -26.2           12.1          87.67
    0.7485              -50.32          6.635          80.15          64.33         -4.356          3.644         -152.0          13.57         -26.09          12.17          87.67
    0.7841              -50.31           6.64          80.12          64.33         -4.366          3.633         -151.9          13.59         -25.98          12.24          87.67
    0.8198               -50.3          6.645          80.09          64.34         -4.377           3.62         -151.9          13.61         -25.85          12.32          87.66
    0.8554              -50.28          6.651          80.05          64.34         -4.389          3.606         -151.8          13.63         -25.71          12.41          87.66
    0.8911              -50.26          6.657          80.01          64.34         -4.403           3.59         -151.7          13.65         -25.55          12.51          87.66
    0.9267              -50.24          6.664          79.96          64.34         -4.418          3.572         -151.6          13.68         -25.37          12.62          87.66
    0.9623              -50.21          6.673          79.91          64.35         -4.435          3.552         -151.5          13.71         -25.17          12.74          87.66
     0.998              -50.19          6.682          79.85          64.35         -4.455           3.53         -151.4          13.74         -24.94          12.89          87.66
     1.034              -50.15          6.692          79.78          64.36         -4.477          3.505         -151.3          13.78         -24.68          13.05          87.65
     1.069              -50.12          6.704          79.71          64.36         -4.502          3.475         -151.1          13.82         -24.38          13.23          87.65
     1.105              -50.08          6.717          79.62          64.37         -4.531          3.442         -151.0          13.87         -24.05          13.44          87.65
     1.141              -50.03          6.733          79.52          64.38         -4.565          3.403         -150.8          13.93         -23.66          13.68          87.65
     1.176              -49.98          6.751           79.4          64.39         -4.604          3.359         -150.5           14.0          -23.2          13.96          87.64
     1.212              -49.91          6.773          79.27           64.4         -4.649          3.306         -150.3          14.07         -22.67          14.29          87.64
     1.247              -49.84          6.798           79.1          64.41         -4.703          3.244         -150.0          14.16         -22.04          14.68          87.63
     1.283              -49.75          6.828          78.91          64.42         -4.767          3.171         -149.6          14.27          -21.3          15.15          87.63
     1.319              -49.64          6.864          78.68          64.44         -4.843          3.083         -149.1           14.4         -20.41           15.7          87.62
